<?xml version="1.0" encoding="utf-8"?>
<!-- Generator: Adobe Illustrator 15.0.0, SVG Export Plug-In . SVG Version: 6.00 Build 0)  -->
<!DOCTYPE svg PUBLIC "-//W3C//DTD SVG 1.1//EN" "http://www.w3.org/Graphics/SVG/1.1/DTD/svg11.dtd">
<svg version="1.1" id="Layer_1" xmlns="http://www.w3.org/2000/svg" xmlns:xlink="http://www.w3.org/1999/xlink" x="0px" y="0px"
	 width="149.25px" height="27.5px" viewBox="0 0 149.25 27.5" enable-background="new 0 0 149.25 27.5" xml:space="preserve">
<g>
	<g>
		<path fill="#7AC143" d="M146.954,7.269c-1.76-3.046-4.6-5.222-7.997-6.13c-3.398-0.907-6.948-0.438-9.99,1.322
			c-3.046,1.761-5.221,4.601-6.13,7.999c-0.907,3.397-0.439,6.945,1.321,9.989c3.634,6.286,11.704,8.442,17.987,4.808
			C148.433,21.624,150.588,13.554,146.954,7.269 M131.613,24.212c-0.066-0.018-0.127-0.043-0.192-0.062
			c-1.499-0.589-2.871-1.518-3.983-2.757c-0.19-0.253-0.371-0.512-0.53-0.788c-1.035-1.794-1.312-3.881-0.778-5.881
			c0.534-1.997,1.816-3.67,3.605-4.707c1.791-1.034,3.882-1.312,5.882-0.778c1.998,0.535,3.671,1.817,4.705,3.608
			c1.037,1.789,1.313,3.878,0.778,5.878c-0.533,1.999-1.813,3.671-3.607,4.706C135.7,24.47,133.614,24.747,131.613,24.212
			 M138.948,24.185c2.172-1.26,3.727-3.291,4.376-5.717c0.216-0.811,0.322-1.633,0.322-2.449c0-1.635-0.43-3.249-1.271-4.703
			c-1.259-2.178-3.293-3.738-5.726-4.387c-2.432-0.65-4.971-0.315-7.152,0.946c-2.178,1.26-3.738,3.294-4.386,5.727
			c-0.149,0.555-0.24,1.115-0.286,1.678c0.033-0.689,0.131-1.379,0.313-2.061c0.662-2.482,2.253-4.56,4.479-5.846
			c2.225-1.286,4.817-1.629,7.3-0.964c2.484,0.661,4.561,2.253,5.846,4.477c2.654,4.594,1.079,10.489-3.513,13.146
			C139.15,24.088,139.049,24.132,138.948,24.185 M140.563,23.473c-0.202,0.118-0.409,0.226-0.617,0.327
			c4.434-2.814,5.912-8.665,3.258-13.251c-1.316-2.281-3.446-3.911-5.991-4.591c-2.546-0.682-5.204-0.329-7.483,0.99
			c-2.279,1.318-3.91,3.446-4.591,5.991c-0.218,0.813-0.317,1.635-0.326,2.453c-0.004,0.06-0.004,0.118-0.008,0.178
			c-0.153-1.308-0.065-2.644,0.284-3.954c0.728-2.723,2.474-4.998,4.911-6.409c2.441-1.411,5.283-1.787,8.005-1.059
			c2.724,0.727,4.999,2.471,6.41,4.911C147.326,14.095,145.6,20.56,140.563,23.473"/>
		<path fill="#FFFFFF" d="M138.575,11.608c-1.453,0-2.736,0.849-3.328,2.112c-0.08-1.211-0.983-2.028-2.409-2.028
			c-1.618,0-2.541,0.912-2.541,2.561h1.323v-0.062c0-0.85,0.417-1.301,1.126-1.301c0.666,0,1.065,0.399,1.065,1.023
			c0,0.942-0.758,1.26-1.805,1.956c-1.228,0.829-1.812,1.577-1.832,2.98h4.859v-1.221h-3.086c0.152-0.418,0.777-0.715,1.636-1.299
			c0.6-0.406,1.041-0.765,1.323-1.192c-0.002,0.048-0.008,0.096-0.008,0.145c0,2.015,1.651,3.639,3.676,3.639
			s3.676-1.624,3.676-3.639C142.251,13.203,140.57,11.608,138.575,11.608 M138.588,17.717c-1.339,0-2.375-1.13-2.375-2.431
			c0-1.349,1.056-2.449,2.375-2.449c1.32,0,2.374,1.101,2.374,2.449C140.962,16.587,139.929,17.717,138.588,17.717"/>
		<path fill="#FFFFFF" d="M138.603,19.244c-1.996,0-3.678,1.595-3.678,3.675c0,0.059,0.006,0.115,0.009,0.172
			c-0.183-0.22-0.426-0.401-0.734-0.536c0.571-0.308,0.859-0.79,0.859-1.414c0-1.167-0.883-1.935-2.335-1.935
			c-1.516,0-2.375,0.809-2.407,2.274h1.353v-0.063c0-0.696,0.368-1.075,0.994-1.075c0.573,0,0.94,0.339,0.94,0.902
			c0,0.666-0.388,0.981-1.216,0.981h-0.154v0.993c0.071,0,0.142-0.01,0.215-0.01c0.9,0,1.36,0.369,1.36,1.076
			c0,0.705-0.408,1.096-1.125,1.096c-0.747,0-1.128-0.399-1.138-1.208h-1.372v0.03c0,1.507,0.901,2.354,2.51,2.354
			c1.528,0,2.485-0.801,2.604-2.066c0.594,1.224,1.854,2.066,3.314,2.066c2.022,0,3.676-1.622,3.676-3.638
			C142.278,20.838,140.595,19.244,138.603,19.244 M138.613,25.355c-1.339,0-2.374-1.133-2.374-2.433c0-1.349,1.055-2.45,2.374-2.45
			c1.32,0,2.374,1.102,2.374,2.45C140.987,24.222,139.953,25.355,138.613,25.355"/>
	</g>
	<path fill="#FFFFFF" d="M4.333,7.091c-0.687,0-0.852,0.411-0.852,1.18v13.387c0,0.769,0.165,1.207,0.852,1.207
		c0.684,0,0.849-0.438,0.849-1.207v-4.444h2.963v4.334c0,2.497-1.316,3.786-3.812,3.786c-2.498,0-3.815-1.289-3.815-3.786V8.517
		c0-2.497,1.317-3.786,3.815-3.786c2.496,0,3.812,1.289,3.812,3.786v3.922H5.183V8.271C5.183,7.502,5.018,7.091,4.333,7.091"/>
	<polygon fill="#FFFFFF" points="9.216,5.203 12.143,5.203 12.143,24.894 9.216,24.894 9.216,5.203 	"/>
	<path fill="#FFFFFF" d="M26.528,5.203l-1.011,4.403c-0.328,1.395-0.493,2.763-0.575,4.185h-0.109
		c-0.055-1.833-0.245-3.255-0.493-4.266l-1.065-4.322h-10.21v2.544h2.543v17.147h2.926V7.747h2.448l2.293,9.764v7.384h3.008V17.51
		l3.009-12.308H26.528L26.528,5.203z"/>
	<path fill="#FFFFFF" d="M50.081,4.784c2.493,0,3.808,1.288,3.808,3.78v3.916h-2.93V8.318c0-0.768-0.193-1.179-0.878-1.179
		c-0.684,0-0.848,0.411-0.848,1.179v1.424c0,0.849,0.082,1.479,0.383,1.889l3.205,4.383c0.602,0.821,1.068,1.644,1.068,2.957v2.604
		c0,2.492-1.315,3.778-3.808,3.778c-2.491,0-3.779-1.286-3.779-3.778v-4.327h2.931v4.436c0,0.768,0.164,1.205,0.848,1.205
		c0.685,0,0.878-0.438,0.878-1.205v-2.053c0-0.576-0.193-1.07-0.494-1.508l-3.34-4.655c-0.632-0.875-0.823-1.699-0.823-2.767V8.564
		C46.302,6.072,47.59,4.784,50.081,4.784"/>
	<path fill="#FFFFFF" d="M56.709,17.519L53.807,5.195h2.903l1.068,4.327c0.247,1.013,0.438,2.437,0.493,4.273h0.11
		c0.082-1.426,0.246-2.795,0.575-4.19l1.012-4.41h2.768l-3.013,12.324v7.396h-3.013V17.519L56.709,17.519z"/>
	<path fill="#FFFFFF" d="M66.433,5.195c2.876,0,4.136,1.041,4.136,3.615v12.49c0,2.575-1.26,3.615-4.136,3.615h-3.479V5.195H66.433
		L66.433,5.195z M65.885,22.503h0.63c0.74,0,1.096-0.411,1.096-1.287V8.756c0-0.877-0.355-1.287-1.096-1.287h-0.63V22.503
		L65.885,22.503z"/>
	<path fill="#FFFFFF" d="M71.852,5.195h4.463l1.094,8.08c0.33,2.49,0.687,5.559,1.016,9.175h0.163
		c-0.082-3.944-0.108-6.189-0.108-6.792L78.396,5.195h2.438v19.72h-4.354l-1.423-10.899c-0.356-2.74-0.631-4.876-0.795-6.465h-0.191
		c0.054,2.876,0.082,4.52,0.082,4.958l0.082,12.407h-2.382V5.195L71.852,5.195z"/>
	<path fill="#FFFFFF" d="M82.253,24.915h6.49v-2.712h-3.56v-6.767h3.479v-2.599h-3.479V7.879h3.513l2.271,9.64v7.396h3.012v-7.396
		l3.014-12.324h-2.766l-1.015,4.41c-0.329,1.396-0.492,2.765-0.574,4.19h-0.109c-0.055-1.837-0.246-3.261-0.495-4.273l-1.066-4.327
		h-8.715V24.915L82.253,24.915z"/>
	<path fill="#FFFFFF" d="M107.12,4.45c-5.877,0-10.642,4.766-10.642,10.641c0,5.878,4.765,10.642,10.642,10.642
		c5.876,0,10.641-4.764,10.641-10.642C117.761,9.216,112.996,4.45,107.12,4.45L107.12,4.45z M107.112,17.588
		c-0.884,0-1.832,0.138-2.692,0.362l-0.12-0.87c0.901-0.229,1.884-0.361,2.813-0.361c0.938,0,1.925,0.131,2.839,0.365l-0.117,0.866
		C108.963,17.718,108.004,17.588,107.112,17.588L107.112,17.588z M109.784,18.321l-0.109,0.854
		c-0.816-0.234-1.724-0.371-2.563-0.371c-0.83,0-1.73,0.134-2.536,0.362l-0.106-0.854c0.848-0.23,1.768-0.36,2.643-0.36
		C107.997,17.951,108.93,18.084,109.784,18.321L109.784,18.321z M106.426,15.493l0.687-0.02l0.675,0.02l-0.001,0.869l-0.674-0.02
		l-0.684,0.02L106.426,15.493L106.426,15.493z M108.371,16.413l0.108-0.865c0.517,0.058,1.142,0.171,1.642,0.293l-0.116,0.866
		C109.592,16.605,108.916,16.48,108.371,16.413L108.371,16.413z M105.733,6.76c0,0,0.962,0.198,1.054,0.219
		c0.032-0.093,0.341-1.024,0.341-1.024s0.311,0.931,0.339,1.024c0.096-0.021,1.055-0.219,1.055-0.219s-0.65,0.733-0.713,0.806
		c0.063,0.071,0.713,0.804,0.713,0.804s-0.959-0.196-1.055-0.215c-0.028,0.09-0.339,1.021-0.339,1.021s-0.309-0.932-0.341-1.021
		c-0.092,0.019-1.054,0.215-1.054,0.215s0.649-0.733,0.715-0.804C106.383,7.493,105.733,6.76,105.733,6.76L105.733,6.76z
		 M106.726,12.851c0.012-0.083,0.133-0.94,0.146-1.034c-0.515-0.104-0.897-0.56-0.897-1.091c0-0.617,0.501-1.119,1.117-1.119
		c0.617,0,1.12,0.502,1.12,1.119c0,0.54-0.389,0.998-0.915,1.095c0.015,0.094,0.136,0.944,0.147,1.029
		c1.174,0.064,2.611,0.496,2.611,0.496s-1.364,0.402-2.473,0.49c0.017,0.111,0.171,1.209,0.171,1.209l-0.661-0.018l-0.68,0.018
		c0,0,0.157-1.099,0.174-1.21c-1.096-0.09-2.425-0.489-2.425-0.489S105.562,12.92,106.726,12.851L106.726,12.851z M105.738,15.55
		l0.087,0.867c-0.506,0.063-1.164,0.179-1.58,0.282l-0.116-0.872C104.616,15.711,105.237,15.609,105.738,15.55L105.738,15.55z
		 M101.342,15.325l0.872,2.742l-0.848-0.528l-0.916,0.519L101.342,15.325L101.342,15.325z M107.108,23.5
		c-2.704-0.002-5.847-2.235-5.847-5.11l0.013-0.378h0.121c0.338,2.42,3.05,4.165,5.4,4.309c-0.117-0.637-0.275-1.707-0.362-3.032
		l0.679-0.023l0.668,0.023c-0.088,1.323-0.276,2.61-0.351,3.032c2.354-0.143,5.059-1.886,5.396-4.309h0.123l0.013,0.378
		C112.962,21.267,109.817,23.5,107.108,23.5L107.108,23.5z M112.909,17.539l-0.914,0.519l0.889-2.732l0.874,2.742L112.909,17.539
		L112.909,17.539z"/>
	<path fill="#FFFFFF" d="M107.584,10.726c0-0.27-0.221-0.492-0.492-0.492c-0.271,0-0.491,0.222-0.491,0.492
		c0,0.271,0.221,0.493,0.491,0.493C107.363,11.219,107.584,10.997,107.584,10.726L107.584,10.726z"/>
	<path fill="#FFFFFF" d="M29.552,21.398c0,2.591,1.38,3.963,3.991,3.963c2.609,0,3.989-1.372,3.989-3.963V8.683
		c0-2.592-1.38-3.963-3.989-3.963c-2.611,0-3.991,1.371-3.991,3.963V21.398L29.552,21.398z M33.542,24.821
		c-2.291,0-3.451-1.151-3.451-3.423V8.683c0-2.27,1.16-3.422,3.451-3.422c2.288,0,3.45,1.152,3.45,3.422v12.715
		C36.993,23.669,35.831,24.821,33.542,24.821"/>
	<path fill="#FFFFFF" d="M32.442,21.503c0,0.433,0,1.449,1.101,1.449c1.125,0,1.125-1.053,1.125-1.449V8.443
		c0-0.388,0-1.421-1.125-1.421c-1.101,0-1.101,0.996-1.101,1.421V21.503L32.442,21.503z M33.542,22.412
		c-0.34,0-0.561-0.064-0.561-0.908V8.443c0-0.821,0.212-0.881,0.561-0.881c0.396,0,0.586,0.133,0.586,0.881v13.061
		C34.129,22.344,33.874,22.412,33.542,22.412"/>
	<path fill="#FFFFFF" d="M38.476,24.931h3.404V15.67h3.398v-3.079H41.88V8.286h3.48V5.121h-6.884V24.931L38.476,24.931z
		 M39.016,5.663h5.803v2.082h-3.48v5.386h3.4v2.001h-3.4v9.261h-2.323V5.663L39.016,5.663z"/>
</g>
</svg>
