<svg xmlns="http://www.w3.org/2000/svg" width="149.25" height="27.5" viewBox="0 0 149.25 27.5"><path fill="#7AC143" d="M146.954 7.269a13.073 13.073 0 0 0-7.997-6.13 13.085 13.085 0 0 0-9.99 1.322 13.08 13.08 0 0 0-6.13 7.999 13.084 13.084 0 0 0 1.321 9.989c3.634 6.286 11.704 8.442 17.987 4.808 6.288-3.633 8.443-11.703 4.809-17.988m-15.341 16.943c-.066-.018-.127-.043-.192-.062a10.505 10.505 0 0 1-3.983-2.757 7.803 7.803 0 0 1-.53-.788 7.71 7.71 0 0 1-.778-5.881 7.712 7.712 0 0 1 3.605-4.707 7.715 7.715 0 0 1 5.882-.778 7.698 7.698 0 0 1 4.705 3.608 7.686 7.686 0 0 1 .778 5.878 7.68 7.68 0 0 1-3.607 4.706 7.685 7.685 0 0 1-5.88.781m7.335-.027a9.367 9.367 0 0 0 4.376-5.717 9.37 9.37 0 0 0-.949-7.152 9.359 9.359 0 0 0-5.726-4.387 9.362 9.362 0 0 0-7.152.946 9.358 9.358 0 0 0-4.386 5.727 9.407 9.407 0 0 0-.286 1.678 9.791 9.791 0 0 1 .313-2.061 9.552 9.552 0 0 1 4.479-5.846 9.553 9.553 0 0 1 7.3-.964 9.544 9.544 0 0 1 5.846 4.477c2.654 4.594 1.079 10.489-3.513 13.146-.1.056-.201.1-.302.153m1.615-.712a9.12 9.12 0 0 1-.617.327c4.434-2.814 5.912-8.665 3.258-13.251a9.787 9.787 0 0 0-5.991-4.591 9.786 9.786 0 0 0-7.483.99 9.803 9.803 0 0 0-4.917 8.444c-.004.06-.004.118-.008.178a10.558 10.558 0 0 1 .284-3.954A10.49 10.49 0 0 1 130 5.207a10.479 10.479 0 0 1 8.005-1.059 10.475 10.475 0 0 1 6.41 4.911c2.911 5.036 1.185 11.501-3.852 14.414"/><path fill="#FFF" d="M138.575 11.608a3.676 3.676 0 0 0-3.328 2.112c-.08-1.211-.983-2.028-2.409-2.028-1.618 0-2.541.912-2.541 2.561h1.323v-.062c0-.85.417-1.301 1.126-1.301.666 0 1.065.399 1.065 1.023 0 .942-.758 1.26-1.805 1.956-1.228.829-1.812 1.577-1.832 2.98h4.859v-1.221h-3.086c.152-.418.777-.715 1.636-1.299.6-.406 1.041-.765 1.323-1.192-.002.048-.008.096-.008.145 0 2.015 1.651 3.639 3.676 3.639s3.676-1.624 3.676-3.639a3.664 3.664 0 0 0-3.675-3.674m.013 6.109c-1.339 0-2.375-1.13-2.375-2.431 0-1.349 1.056-2.449 2.375-2.449 1.32 0 2.374 1.101 2.374 2.449 0 1.301-1.033 2.431-2.374 2.431M138.603 19.244a3.667 3.667 0 0 0-3.678 3.675c0 .059.006.115.009.172a1.958 1.958 0 0 0-.734-.536c.571-.308.859-.79.859-1.414 0-1.167-.883-1.935-2.335-1.935-1.516 0-2.375.809-2.407 2.274h1.353v-.063c0-.696.368-1.075.994-1.075.573 0 .94.339.94.902 0 .666-.388.981-1.216.981h-.154v.993c.071 0 .142-.01.215-.01.9 0 1.36.369 1.36 1.076 0 .705-.408 1.096-1.125 1.096-.747 0-1.128-.399-1.138-1.208h-1.372v.03c0 1.507.901 2.354 2.51 2.354 1.528 0 2.485-.801 2.604-2.066a3.676 3.676 0 0 0 3.314 2.066c2.022 0 3.676-1.622 3.676-3.638a3.666 3.666 0 0 0-3.675-3.674m.01 6.111c-1.339 0-2.374-1.133-2.374-2.433 0-1.349 1.055-2.45 2.374-2.45 1.32 0 2.374 1.102 2.374 2.45 0 1.3-1.034 2.433-2.374 2.433M4.333 7.091c-.687 0-.852.411-.852 1.18v13.387c0 .769.165 1.207.852 1.207.684 0 .849-.438.849-1.207v-4.444h2.963v4.334c0 2.497-1.316 3.786-3.812 3.786-2.498 0-3.815-1.289-3.815-3.786V8.517c0-2.497 1.317-3.786 3.815-3.786 2.496 0 3.812 1.289 3.812 3.786v3.922H5.183V8.271c0-.769-.165-1.18-.85-1.18M9.216 5.203h2.927v19.691H9.216V5.203zM26.528 5.203l-1.011 4.403c-.328 1.395-.493 2.763-.575 4.185h-.109c-.055-1.833-.245-3.255-.493-4.266l-1.065-4.322h-10.21v2.544h2.543v17.147h2.926V7.747h2.448l2.293 9.764v7.384h3.008V17.51l3.009-12.308h-2.764v.001zM50.081 4.784c2.493 0 3.808 1.288 3.808 3.78v3.916h-2.93V8.318c0-.768-.193-1.179-.878-1.179-.684 0-.848.411-.848 1.179v1.424c0 .849.082 1.479.383 1.889l3.205 4.383c.602.821 1.068 1.644 1.068 2.957v2.604c0 2.492-1.315 3.778-3.808 3.778-2.491 0-3.779-1.286-3.779-3.778v-4.327h2.931v4.436c0 .768.164 1.205.848 1.205.685 0 .878-.438.878-1.205v-2.053c0-.576-.193-1.07-.494-1.508l-3.34-4.655c-.632-.875-.823-1.699-.823-2.767V8.564c0-2.492 1.288-3.78 3.779-3.78M56.709 17.519L53.807 5.195h2.903l1.068 4.327c.247 1.013.438 2.437.493 4.273h.11c.082-1.426.246-2.795.575-4.19l1.012-4.41h2.768l-3.013 12.324v7.396H56.71v-7.396h-.001zM66.433 5.195c2.876 0 4.136 1.041 4.136 3.615V21.3c0 2.575-1.26 3.615-4.136 3.615h-3.479V5.195h3.479zm-.548 17.308h.63c.74 0 1.096-.411 1.096-1.287V8.756c0-.877-.355-1.287-1.096-1.287h-.63v15.034zM71.852 5.195h4.463l1.094 8.08c.33 2.49.687 5.559 1.016 9.175h.163a460.226 460.226 0 0 1-.108-6.792l-.084-10.463h2.438v19.72H76.48l-1.423-10.899c-.356-2.74-.631-4.876-.795-6.465h-.191c.054 2.876.082 4.52.082 4.958l.082 12.407h-2.382V5.195h-.001zM82.253 24.915h6.49v-2.712h-3.56v-6.767h3.479v-2.599h-3.479V7.879h3.513l2.271 9.64v7.396h3.012v-7.396l3.014-12.324h-2.766l-1.015 4.41c-.329 1.396-.492 2.765-.574 4.19h-.109c-.055-1.837-.246-3.261-.495-4.273l-1.066-4.327h-8.715v19.72zM107.12 4.45c-5.877 0-10.642 4.766-10.642 10.641 0 5.878 4.765 10.642 10.642 10.642 5.876 0 10.641-4.764 10.641-10.642 0-5.875-4.765-10.641-10.641-10.641zm-.008 13.138c-.884 0-1.832.138-2.692.362l-.12-.87a11.665 11.665 0 0 1 2.813-.361c.938 0 1.925.131 2.839.365l-.117.866a10.857 10.857 0 0 0-2.723-.362zm2.672.733l-.109.854a9.562 9.562 0 0 0-2.563-.371c-.83 0-1.73.134-2.536.362l-.106-.854c.848-.23 1.768-.36 2.643-.36.884-.001 1.817.132 2.671.369zm-3.358-2.828l.687-.02.675.02-.001.869-.674-.02-.684.02-.003-.869zm1.945.92l.108-.865c.517.058 1.142.171 1.642.293l-.116.866a15.851 15.851 0 0 0-1.634-.294zm-2.638-9.653s.962.198 1.054.219l.341-1.024s.311.931.339 1.024c.096-.021 1.055-.219 1.055-.219s-.65.733-.713.806l.713.804-1.055-.215c-.028.09-.339 1.021-.339 1.021s-.309-.932-.341-1.021l-1.054.215s.649-.733.715-.804l-.715-.806zm.993 6.091l.146-1.034a1.12 1.12 0 0 1-.897-1.091 1.12 1.12 0 0 1 2.237 0c0 .54-.389.998-.915 1.095.015.094.136.944.147 1.029 1.174.064 2.611.496 2.611.496s-1.364.402-2.473.49c.017.111.171 1.209.171 1.209l-.661-.018-.68.018s.157-1.099.174-1.21c-1.096-.09-2.425-.489-2.425-.489s1.401-.426 2.565-.495zm-.988 2.699l.087.867c-.506.063-1.164.179-1.58.282l-.116-.872a15.187 15.187 0 0 1 1.609-.277zm-4.396-.225l.872 2.742-.848-.528-.916.519.892-2.733zm5.766 8.175c-2.704-.002-5.847-2.235-5.847-5.11l.013-.378h.121c.338 2.42 3.05 4.165 5.4 4.309a27.156 27.156 0 0 1-.362-3.032l.679-.023.668.023a32.596 32.596 0 0 1-.351 3.032c2.354-.143 5.059-1.886 5.396-4.309h.123l.013.378c.001 2.877-3.144 5.11-5.853 5.11zm5.801-5.961l-.914.519.889-2.732.874 2.742-.849-.529z"/><path fill="#FFF" d="M107.584 10.726a.493.493 0 1 0-.492.493.494.494 0 0 0 .492-.493zM29.552 21.398c0 2.591 1.38 3.963 3.991 3.963 2.609 0 3.989-1.372 3.989-3.963V8.683c0-2.592-1.38-3.963-3.989-3.963-2.611 0-3.991 1.371-3.991 3.963v12.715zm3.99 3.423c-2.291 0-3.451-1.151-3.451-3.423V8.683c0-2.27 1.16-3.422 3.451-3.422 2.288 0 3.45 1.152 3.45 3.422v12.715c.001 2.271-1.161 3.423-3.45 3.423"/><path fill="#FFF" d="M32.442 21.503c0 .433 0 1.449 1.101 1.449 1.125 0 1.125-1.053 1.125-1.449V8.443c0-.388 0-1.421-1.125-1.421-1.101 0-1.101.996-1.101 1.421v13.06zm1.1.909c-.34 0-.561-.064-.561-.908V8.443c0-.821.212-.881.561-.881.396 0 .586.133.586.881v13.061c.001.84-.254.908-.586.908M38.476 24.931h3.404V15.67h3.398v-3.079H41.88V8.286h3.48V5.121h-6.884v19.81zm.54-19.268h5.803v2.082h-3.48v5.386h3.4v2.001h-3.4v9.261h-2.323V5.663z"/></svg>